<?xml version="1.0"?>
<svg xmlns="http://www.w3.org/2000/svg" xmlns:xlink="http://www.w3.org/1999/xlink" width="512" height="512" viewBox="0 0 128 128"><defs><linearGradient id="a" x1="98.499" y1="102.77" x2="29.501" y2="33.772" gradientUnits="userSpaceOnUse"><stop offset="0" stop-color="#73c3f9"/><stop offset="1" stop-color="#ffc839"/></linearGradient></defs><path d="M93.32,65.14a1.75,1.75,0,0,1,2.431-.463l3.309,2.251a1.75,1.75,0,0,1-1.969,2.894l-3.309-2.251A1.749,1.749,0,0,1,93.32,65.14Zm16.93,10.327V90.293a1.75,1.75,0,0,1-1.75,1.75H78.693v7.749a1.749,1.749,0,0,1-1.75,1.75H73.937v1.767a38.074,38.074,0,0,1-8.583,24.046,1.75,1.75,0,0,1-2.709,0,38.08,38.08,0,0,1-8.583-24.046v-1.767h-3a1.749,1.749,0,0,1-1.75-1.75V92.043H19.5a1.75,1.75,0,0,1-1.75-1.75V75.467a1.751,1.751,0,0,1,.766-1.447l25.724-17.5L42.615,45.643a1.75,1.75,0,0,1,3.462-.518l1.787,11.963h0l4.7,31.455h22.87l6.488-43.418a35.769,35.769,0,0,0-7.5-27.653L64,4.537,53.579,17.472a35.649,35.649,0,0,0-7.638,18.112,1.75,1.75,0,0,1-3.474-.418,39.143,39.143,0,0,1,8.386-19.89L62.637.649a1.811,1.811,0,0,1,2.726,0L77.146,15.276a39.281,39.281,0,0,1,8.239,30.367L83.76,56.519l5.142,3.5a1.749,1.749,0,1,1-1.968,2.893l-3.749-2.55-.923,6.18,18.094,12.31a1.748,1.748,0,0,1,.766,1.446v8.246h5.628V76.393l-2.81-1.912a1.75,1.75,0,1,1,1.969-2.893l3.575,2.432A1.751,1.751,0,0,1,110.25,75.467ZM81.688,70.383l-2.714,18.16H97.622v-7.32Zm-35.376,0L30.378,81.223v7.32H49.025ZM21.25,88.543h5.628V80.3a1.748,1.748,0,0,1,.766-1.446l18.094-12.31-.923-6.179L21.25,76.393Zm49.187,13H65.75V109a1.75,1.75,0,0,1-3.5,0v-7.458H57.562v1.767A34.576,34.576,0,0,0,64,123.369a34.582,34.582,0,0,0,6.437-20.06Zm4.756-9.5H52.807v6H75.193ZM64,48.75c-5.48,0-9.938-6-9.938-13.375S58.52,22,64,22s9.937,6,9.937,13.375S69.479,48.75,64,48.75Zm0-3.5c3.489,0,6.437-4.522,6.437-9.875S67.489,25.5,64,25.5s-6.438,4.522-6.438,9.875S60.511,45.25,64,45.25Z" fill="url(#a)"/></svg>
